# Blender v3.0.1 OBJ File: ''
# www.blender.org
mtllib console.mtl
o Console_Cube
v 0.300000 -0.007393 -0.300000
v 0.300000 -0.007393 0.300000
v -0.300000 -0.007393 -0.300000
v -0.300000 -0.007393 0.300000
v 0.248976 1.783853 0.247259
v 0.248976 1.939865 0.091247
v -0.248976 1.939865 0.091247
v -0.248976 1.783853 0.247259
v 0.293118 1.992607 -0.293118
v 0.300000 1.985724 -0.292598
v 0.292598 1.985724 -0.300000
v -0.293118 1.992607 -0.293118
v -0.292598 1.985724 -0.300000
v -0.300000 1.985724 -0.292598
v 0.292514 0.085537 -0.300000
v 0.300000 0.085537 -0.292514
v -0.292514 0.085537 0.300000
v -0.300000 0.085537 0.292514
v 0.292514 0.085537 0.300000
v 0.300000 0.085537 0.292514
v -0.300000 0.085537 -0.292514
v -0.292514 0.085537 -0.300000
v -0.292578 1.693112 0.300000
v -0.300000 1.693112 0.292578
v 0.292578 1.693111 -0.300000
v 0.300000 1.693111 -0.292578
v 0.300000 1.693111 0.292578
v 0.292578 1.693111 0.300000
v -0.300000 1.693111 -0.292578
v -0.292578 1.693111 -0.300000
v 0.255859 1.961394 0.103042
v 0.248976 1.951661 0.103042
v 0.248976 1.795649 0.259054
v 0.255859 1.795649 0.268787
v -0.255859 1.795649 0.268787
v -0.248976 1.795649 0.259054
v -0.255859 1.961394 0.103042
v -0.248976 1.951661 0.103042
v 0.293118 1.769302 0.295133
v 0.292598 1.757553 0.300000
v 0.300000 1.762104 0.292598
v 0.300000 1.985724 0.068978
v 0.293118 1.992607 0.064947
v 0.293118 1.987740 0.076696
v -0.293118 1.992607 0.064947
v -0.300000 1.985724 0.068978
v -0.293118 1.987740 0.076696
v -0.300000 1.762104 0.292598
v -0.292598 1.757553 0.300000
v -0.293118 1.769302 0.295133
v -0.360468 -0.007393 -0.353586
v -0.353586 -0.007393 -0.360468
v -0.355602 -0.007393 -0.355602
v -0.353586 -0.007393 0.360468
v -0.360468 -0.007393 0.353586
v -0.355602 -0.007393 0.355602
v 0.353586 -0.007393 -0.360468
v 0.360468 -0.007393 -0.353586
v 0.355602 -0.007393 -0.355602
v 0.353586 0.085537 -0.346013
v 0.360468 0.078655 -0.353586
v 0.353586 0.078655 -0.360468
v 0.346013 0.085537 -0.353586
v 0.353586 0.078655 0.360468
v 0.360468 0.078655 0.353586
v 0.353586 0.085537 0.346013
v 0.346013 0.085537 0.353586
v 0.360468 -0.007393 0.353586
v 0.353586 -0.007393 0.360468
v 0.355602 -0.007393 0.355602
v -0.353586 0.085537 -0.346013
v -0.346013 0.085537 -0.353586
v -0.353586 0.078655 -0.360468
v -0.360468 0.078655 -0.353586
v -0.346013 0.085537 0.353586
v -0.353586 0.085537 0.346013
v -0.360468 0.078655 0.353586
v -0.353586 0.078655 0.360468
vt 0.054449 0.964138
vt 0.054449 0.986350
vt 0.040882 0.986350
vt 0.040882 0.964138
vt 0.035758 0.952530
vt 0.035759 0.955144
vt 0.027286 0.963617
vt 0.013586 0.963617
vt 0.013587 0.952530
vt 0.015597 0.966168
vt 0.038331 0.966168
vt 0.038331 0.988902
vt 0.015597 0.988902
vt 0.077450 0.836615
vt 0.077450 0.858782
vt 0.075420 0.860809
vt 0.075420 0.834588
vt 0.081226 0.952530
vt 0.081227 0.963616
vt 0.067527 0.963617
vt 0.059054 0.955144
vt 0.059054 0.952530
vt 0.103959 0.952530
vt 0.103960 0.954971
vt 0.081787 0.954971
vt 0.081788 0.952530
vt 0.104935 0.796116
vt 0.101675 0.796116
vt 0.101675 0.769322
vt 0.104935 0.769321
vt 0.081223 0.891619
vt 0.059057 0.891619
vt 0.103957 0.891619
vt 0.081791 0.891619
vt 0.100184 0.858782
vt 0.100184 0.836615
vt 0.102215 0.834588
vt 0.102215 0.860809
vt 0.058490 0.891619
vt 0.058492 0.952530
vt 0.036321 0.952530
vt 0.036323 0.891619
vt 0.077734 0.859065
vt 0.099900 0.859065
vt 0.101928 0.861096
vt 0.075707 0.861096
vt 0.035756 0.891619
vt 0.013589 0.891619
vt 0.068642 0.963877
vt 0.068642 0.972237
vt 0.068010 0.972237
vt 0.068010 0.963877
vt 0.067750 0.963877
vt 0.067750 0.972237
vt 0.067118 0.972237
vt 0.067118 0.963877
vt 0.062173 0.984678
vt 0.062173 0.965811
vt 0.062620 0.965811
vt 0.062620 0.984678
vt 0.102568 0.956415
vt 0.083179 0.956415
vt 0.081768 0.955416
vt 0.103980 0.955416
vt 0.009249 0.843610
vt 0.009249 0.866344
vt 0.007142 0.868450
vt 0.006958 0.868374
vt 0.006958 0.841579
vt 0.007142 0.841503
vt 0.066671 0.982744
vt 0.066671 0.963877
vt 0.067118 0.982744
vt 0.054710 0.982745
vt 0.054710 0.963877
vt 0.060621 0.963877
vt 0.060621 0.982745
vt 0.061804 0.965550
vt 0.061804 0.984939
vt 0.060806 0.986350
vt 0.060806 0.964138
vt 0.062880 0.971340
vt 0.062880 0.965060
vt 0.064292 0.964062
vt 0.064292 0.972338
vt 0.064814 0.971340
vt 0.064814 0.965060
vt 0.066225 0.964062
vt 0.066225 0.972338
vt 0.031983 0.866344
vt 0.034090 0.868450
vt 0.034013 0.868635
vt 0.007219 0.868635
vt 0.031983 0.843610
vt 0.034090 0.841503
vt 0.034274 0.841579
vt 0.034274 0.868374
vt 0.007219 0.841319
vt 0.034013 0.841319
vt 0.104935 0.823432
vt 0.101675 0.823432
vt 0.101675 0.796637
vt 0.104935 0.796637
vt 0.099901 0.836332
vt 0.077734 0.836332
vt 0.075707 0.834301
vt 0.101928 0.834301
vt 0.101414 0.796116
vt 0.098154 0.796116
vt 0.098154 0.769322
vt 0.101414 0.769321
vt 0.097893 0.796637
vt 0.101153 0.796637
vt 0.101153 0.823432
vt 0.097893 0.823432
vt 0.090806 0.773429
vt 0.091064 0.773768
vt 0.090547 0.773768
vt 0.090283 0.773429
vt 0.090542 0.773768
vt 0.090025 0.773768
vt 0.082741 0.854125
vt 0.082601 0.853513
vt 0.083096 0.853772
vt 0.090022 0.866845
vt 0.089899 0.867252
vt 0.089507 0.866895
vt 0.047005 0.773429
vt 0.047128 0.773836
vt 0.046612 0.773786
vt 0.040202 0.786909
vt 0.039707 0.787168
vt 0.039847 0.786556
vt 0.059592 0.810415
vt 0.059592 0.810895
vt 0.059493 0.810655
vt 0.059592 0.808975
vt 0.059592 0.809455
vt 0.059493 0.809215
vt 0.059592 0.809935
vt 0.059592 0.810415
vt 0.059493 0.810175
vt 0.081911 0.773768
vt 0.082262 0.773429
vt 0.082601 0.773768
vt 0.082284 0.774142
vt 0.047128 0.773768
vt 0.047467 0.773429
vt 0.047861 0.773768
vt 0.047489 0.774142
vt 0.059592 0.809455
vt 0.059592 0.809935
vt 0.059493 0.809695
vt 0.081911 0.808636
vt 0.082284 0.808263
vt 0.082601 0.808636
vt 0.082262 0.808975
vt 0.047489 0.808263
vt 0.047861 0.808636
vt 0.047467 0.808975
vt 0.047128 0.808636
vt 0.079279 0.776410
vt 0.079647 0.776779
vt 0.050125 0.805625
vt 0.050494 0.805994
vt 0.056099 0.837880
vt 0.056099 0.808975
vt 0.056416 0.809001
vt 0.056416 0.837855
vt 0.091064 0.788196
vt 0.091067 0.867459
vt 0.090544 0.867459
vt 0.090547 0.788196
vt 0.079647 0.805625
vt 0.079279 0.805994
vt 0.082866 0.850427
vt 0.089502 0.773429
vt 0.090022 0.773470
vt 0.083382 0.850468
vt 0.090542 0.788196
vt 0.090544 0.867459
vt 0.090022 0.867459
vt 0.090025 0.788196
vt 0.046608 0.867252
vt 0.039972 0.790254
vt 0.040488 0.790213
vt 0.047128 0.867211
vt 0.055026 0.837880
vt 0.055026 0.808975
vt 0.055620 0.808975
vt 0.055620 0.837880
vt 0.019589 0.784222
vt 0.019693 0.783605
vt 0.056755 0.826814
vt 0.056755 0.809023
vt 0.057094 0.808975
vt 0.057094 0.826593
vt 0.056416 0.826766
vt 0.056416 0.808975
vt 0.056755 0.809196
vt 0.056755 0.826814
vt 0.057573 0.808975
vt 0.057573 0.819941
vt 0.057094 0.819628
vt 0.057094 0.809306
vt 0.054670 0.832787
vt 0.047128 0.816686
vt 0.047688 0.816807
vt 0.055026 0.832474
vt 0.054925 0.808975
vt 0.055026 0.809549
vt 0.055620 0.834206
vt 0.055620 0.808975
vt 0.056099 0.809315
vt 0.056099 0.833867
vt 0.057573 0.813218
vt 0.057573 0.808975
vt 0.058053 0.808975
vt 0.058053 0.813218
vt 0.059493 0.808975
vt 0.059493 0.813112
vt 0.059013 0.813115
vt 0.059013 0.808978
vt 0.058053 0.813218
vt 0.058053 0.808975
vt 0.058533 0.808975
vt 0.058533 0.813218
vt 0.059013 0.808978
vt 0.059013 0.813115
vt 0.058533 0.813112
vt 0.058533 0.808975
vt 0.050494 0.776410
vt 0.050125 0.776779
vt 0.058493 0.963617
vt 0.036320 0.963617
vn 0.0000 1.0000 0.0000
vn -1.0000 -0.0000 0.0000
vn 0.0000 -1.0000 0.0000
vn 1.0000 -0.0000 0.0000
vn 0.0000 0.0000 1.0000
vn 0.0000 0.0000 -1.0000
vn 0.0000 -0.7071 0.7071
vn 0.0000 0.7071 0.7071
vn 0.0000 0.7071 -0.7071
vn 0.5918 0.5472 -0.5919
vn -0.5918 0.5472 -0.5919
vn 0.5822 0.2890 0.7599
vn 0.5733 0.7570 0.3136
vn -0.5733 0.7570 0.3136
vn -0.5822 0.2890 0.7599
vn 0.3949 0.8295 -0.3949
vn 0.3949 0.8295 0.3949
vn -0.3949 0.8295 -0.3949
vn -0.3949 0.8295 0.3949
vn 0.7071 -0.0000 -0.7071
vn 0.7071 -0.0000 0.7071
vn -0.7071 -0.0000 -0.7071
vn -0.7071 -0.0000 0.7071
vn 0.7071 -0.0001 -0.7071
vn -0.7071 -0.0001 -0.7071
vn 0.7071 0.5000 0.5000
vn 0.0000 0.9239 0.3827
vn -0.7071 0.5000 0.5000
vn 0.0000 0.3827 0.9239
vn 0.7071 -0.0002 0.7071
vn -0.7071 -0.0002 0.7071
vn 0.7071 0.7071 0.0000
vn -0.7071 0.7071 0.0000
usemtl Material
s off
f 9/1/1 12/2/1 45/3/1 43/4/1
f 24/5/2 48/6/2 46/7/2 14/8/2 29/9/2
f 3/10/3 1/11/3 2/12/3 4/13/3
f 16/14/1 20/15/1 66/16/1 60/17/1
f 26/18/4 10/19/4 42/20/4 41/21/4 27/22/4
f 28/23/5 40/24/5 49/25/5 23/26/5
f 52/27/6 73/28/6 62/29/6 57/30/6
f 16/31/4 26/18/4 27/22/4 20/32/4
f 19/33/5 28/23/5 23/26/5 17/34/5
f 18/35/1 21/36/1 71/37/1 76/38/1
f 22/39/6 30/40/6 25/41/6 15/42/6
f 19/43/1 17/44/1 75/45/1 67/46/1
f 18/47/2 24/5/2 29/9/2 21/48/2
f 38/49/4 36/50/4 8/51/4 7/52/4
f 33/53/2 32/54/2 6/55/2 5/56/2
f 32/57/7 38/58/7 7/59/7 6/60/7
f 34/61/8 35/62/8 50/63/8 39/64/8
f 3/65/3 4/66/3 56/67/3 55/68/3 51/69/3 53/70/3
f 36/71/9 33/72/9 5/56/9 8/73/9
f 6/74/8 7/75/8 8/76/8 5/77/8
f 37/78/8 31/79/8 44/80/8 47/81/8
f 35/82/8 37/83/8 47/84/8 50/85/8
f 31/86/8 34/87/8 39/88/8 44/89/8
f 4/66/3 2/90/3 70/91/3 69/92/3 54/93/3 56/67/3
f 2/90/3 1/94/3 59/95/3 58/96/3 68/97/3 70/91/3
f 1/94/3 3/65/3 53/70/3 52/98/3 57/99/3 59/95/3
f 58/100/4 61/101/4 65/102/4 68/103/4
f 22/104/1 15/105/1 63/106/1 72/107/1
f 55/108/2 77/109/2 74/110/2 51/111/2
f 69/112/5 64/113/5 78/114/5 54/115/5
f 9/116/10 10/117/10 11/118/10
f 12/119/11 13/120/11 14/121/11
f 39/122/12 40/123/12 41/124/12
f 42/125/13 43/126/13 44/127/13
f 45/128/14 46/129/14 47/130/14
f 48/131/15 49/132/15 50/133/15
f 51/134/3 52/135/3 53/136/3
f 54/137/3 55/138/3 56/139/3
f 57/140/3 58/141/3 59/142/3
f 60/143/16 61/144/16 62/145/16 63/146/16
f 64/147/17 65/148/17 66/149/17 67/150/17
f 68/151/3 69/152/3 70/153/3
f 71/154/18 72/155/18 73/156/18 74/157/18
f 75/158/19 76/159/19 77/160/19 78/161/19
f 16/162/1 60/143/1 63/146/1 15/163/1
f 75/158/1 17/164/1 18/165/1 76/159/1
f 12/166/9 9/167/9 11/168/9 13/169/9
f 26/170/20 16/171/20 15/172/20 25/173/20
f 22/174/1 72/155/1 71/154/1 21/175/1
f 28/176/21 19/177/21 20/178/21 27/179/21
f 30/180/22 22/181/22 21/182/22 29/183/22
f 17/184/23 23/185/23 24/186/23 18/187/23
f 10/117/24 26/170/24 25/173/24 11/118/24
f 13/120/25 30/180/25 29/183/25 14/121/25
f 41/124/26 42/125/26 44/127/26 39/122/26
f 43/188/27 45/189/27 47/190/27 44/191/27
f 46/129/28 48/131/28 50/133/28 47/130/28
f 49/132/29 40/192/29 39/193/29 50/133/29
f 27/179/30 41/124/30 40/123/30 28/176/30
f 48/131/31 24/186/31 23/185/31 49/132/31
f 42/194/32 10/195/32 9/196/32 43/197/32
f 14/198/33 46/199/33 45/200/33 12/201/33
f 34/202/28 31/203/28 32/204/28 33/205/28
f 31/206/5 37/207/5 38/208/5 32/209/5
f 37/207/26 35/210/26 36/211/26 38/208/26
f 35/212/1 34/213/1 33/214/1 36/215/1
f 61/216/20 58/217/20 57/218/20 62/219/20
f 64/220/21 69/221/21 68/222/21 65/223/21
f 73/224/22 52/225/22 51/226/22 74/227/22
f 54/228/23 78/229/23 77/230/23 55/231/23
f 72/155/9 63/146/9 62/145/9 73/156/9
f 60/143/32 66/149/32 65/148/32 61/144/32
f 76/159/33 71/154/33 74/157/33 77/160/33
f 67/150/8 75/158/8 78/161/8 64/147/8
f 66/149/1 20/232/1 19/233/1 67/150/1
f 30/40/6 13/234/6 11/235/6 25/41/6
